<?xml version="1.0" standalone="no"?>
<!DOCTYPE svg PUBLIC "-//W3C//DTD SVG 20010904//EN"
 "http://www.w3.org/TR/2001/REC-SVG-20010904/DTD/svg10.dtd">
<svg version="1.0" xmlns="http://www.w3.org/2000/svg"
 width="88.000000pt" height="88.000000pt" viewBox="0 0 88.000000 88.000000"
 preserveAspectRatio="xMidYMid meet">
<metadata>
Created by potrace 1.14, written by Peter Selinger 2001-2017
</metadata>
<g transform="translate(0.000000,88.000000) scale(0.100000,-0.100000)"
fill="#000000" stroke="none">
<path d="M329 865 c-154 -42 -282 -176 -319 -334 -20 -85 -7 -192 34 -276 19
-38 45 -83 59 -100 l25 -29 0 271 c0 149 2 275 6 281 9 15 95 -10 160 -47 30
-18 77 -57 105 -87 28 -31 51 -50 51 -44 0 18 96 105 147 132 67 36 151 60
159 46 4 -6 7 -131 7 -277 l0 -265 23 30 c32 39 71 119 84 172 28 111 -3 263
-73 359 -52 69 -95 104 -183 145 -55 26 -80 31 -152 33 -48 2 -108 -3 -133
-10z"/>
<path d="M612 530 c-76 -55 -109 -130 -117 -265 -2 -33 -4 -64 -4 -68 -1 -4
-22 -7 -48 -5 l-47 3 -3 65 c-5 102 -22 165 -54 210 -28 38 -82 80 -104 80 -7
0 -8 -87 -5 -252 l5 -252 50 -20 c77 -30 240 -29 318 3 l57 23 0 254 c0 140
-2 254 -3 254 -2 0 -23 -13 -45 -30z"/>
</g>
</svg>
