<?xml version="1.0" encoding="utf-8"?>
<!-- Generator: Adobe Illustrator 26.0.2, SVG Export Plug-In . SVG Version: 6.00 Build 0)  -->
<svg version="1.1" id="Layer_1" xmlns="http://www.w3.org/2000/svg" xmlns:xlink="http://www.w3.org/1999/xlink" x="0px" y="0px"
	 viewBox="0 0 124 60.1" style="enable-background:new 0 0 124 60.1;" xml:space="preserve">
<style type="text/css">
	.st0{fill:url(#SVGID_1_);}
	.st1{fill:url(#SVGID_00000057857984109643143220000018235624794138903723_);}
	.st2{fill:url(#SVGID_00000027594772829075125320000011128598073497556376_);}
	.st3{fill:url(#SVGID_00000043433180227924138780000000916263087134583445_);}
	.st4{fill:url(#SVGID_00000178919178779523695190000005939079461496199561_);}
	.st5{fill:url(#SVGID_00000133511699505125834430000013501211755773688201_);}
</style>
<g>
	<linearGradient id="SVGID_1_" gradientUnits="userSpaceOnUse" x1="30.8503" y1="37.0763" x2="0.7104" y2="6.9364">
		<stop  offset="0" style="stop-color:#0C4F96"/>
		<stop  offset="1" style="stop-color:#1E90FF"/>
	</linearGradient>
	<path class="st0" d="M0,36.2c1.6-0.3,2.7-0.8,3.3-1.7c0.6-0.9,0.9-2.3,0.9-4.4v-20C3.4,9,2,8.2,0,7.8V7.6c1.9,0.2,3,0.3,3.4,0.3
		C4.8,8,6.2,8,7.5,8l7.7,15.7c0.1,0.3,0.2,0.6,0.1,0.9L15,26.7l0.3,0.1L24.8,8c1.3,0,2.4,0,3.4-0.1l3.4-0.3v0.2
		c-1.6,0.2-2.7,0.8-3.3,1.7c-0.6,0.9-0.9,2.3-0.9,4.3V33c0,1.2,0.2,2,0.6,2.3c0.4,0.3,1.6,0.6,3.6,0.9v0.2c-2.6-0.2-4.7-0.4-6.1-0.4
		c-1.4,0-3.5,0.1-6.1,0.4v-0.2c2-0.3,3.2-0.6,3.6-0.9c0.4-0.3,0.6-1.1,0.6-2.3V10.5L14,29.6L4.7,10.9c-0.1-0.1-0.2-0.4-0.4-0.6v19.8
		c0,2,0.3,3.5,0.9,4.4c0.6,0.9,1.7,1.5,3.3,1.7v0.2c-1.5-0.2-3-0.4-4.3-0.4C3,36,1.5,36.1,0,36.4V36.2z"/>
	
		<linearGradient id="SVGID_00000021837919173134582930000012159222280924160930_" gradientUnits="userSpaceOnUse" x1="49.4525" y1="35.4599" x2="34.9485" y2="20.9559">
		<stop  offset="0" style="stop-color:#0C4F96"/>
		<stop  offset="1" style="stop-color:#1E90FF"/>
	</linearGradient>
	<path style="fill:url(#SVGID_00000021837919173134582930000012159222280924160930_);" d="M46.5,18.7c1,1.1,1.6,2.5,1.6,4.4v10.7
		c0,0.9,0.3,1.4,0.9,1.4c0.4,0,1-0.4,1.7-1.2l0.1,0.1c-1.4,1.7-2.8,2.6-4.1,2.6c-0.7,0-1.2-0.2-1.7-0.6c-0.4-0.4-0.6-0.9-0.6-1.6
		v-1.8l-4.1,3.2c-0.5,0.4-1.2,0.7-1.8,0.7c-1.4,0-2.5-0.6-3.4-1.7c-0.9-1.1-1.3-2.5-1.3-4.4c0-1.3,0.3-2.4,1-3.4
		c0.7-1.1,1.6-1.7,2.8-2c0.9-0.2,1.8-0.3,2.6-0.3c1.2,0,2.6,0.3,4.3,0.9v-4.5c0-2.6-0.7-3.9-2.2-3.9c-1,0-1.8,0.2-2.4,0.7
		c-0.6,0.5-0.9,1.2-0.9,2c0,0.1,0,0.4,0,0.6c0,0.3,0,0.5,0,0.6c0,0.6-0.2,1.1-0.5,1.4c-0.3,0.4-0.8,0.6-1.3,0.6
		c-0.5,0-0.9-0.2-1.2-0.5c-0.3-0.3-0.5-0.8-0.5-1.3c0-1.1,0.7-2.1,2.1-3c1.4-0.9,2.9-1.4,4.6-1.4C44.1,17.2,45.5,17.7,46.5,18.7z
		 M45.9,31.3L45.8,31l-1,0.3c-0.2,0.1-0.4,0-0.4-0.2v-5.3c-1.4-0.5-2.6-0.8-3.6-0.8c-0.7,0-1.2,0.1-1.5,0.3
		c-1.2,0.7-1.9,2.4-1.9,5.2c0,1.3,0.3,2.6,0.8,3.7c0.5,1.1,1.1,1.7,1.7,1.7c0.2,0,0.4-0.1,0.6-0.2L45.9,31.3z"/>
	
		<linearGradient id="SVGID_00000168812521222215302790000014028367115016110758_" gradientUnits="userSpaceOnUse" x1="78.8058" y1="69.1605" x2="36.2424" y2="26.5971">
		<stop  offset="0" style="stop-color:#0C4F96"/>
		<stop  offset="1" style="stop-color:#1E90FF"/>
	</linearGradient>
	<path style="fill:url(#SVGID_00000168812521222215302790000014028367115016110758_);" d="M43.4,42.9c0.7-1.8,2-3.3,3.7-4.5
		c1.7-1.1,3.6-1.9,5.8-2.2c1.5-0.3,2.5-0.5,2.8-0.7c0.3-0.2,0.5-0.7,0.5-1.5V21.1c0-1.2-0.2-2-0.6-2.3c-0.4-0.3-1.6-0.6-3.6-0.9
		v-0.2c1.2,0.1,2,0.1,2.6,0.1c1.7,0,3.1-0.4,4.4-1.3c0.3,0,0.6,0.1,0.9,0.3v2.6c0,0.3-0.1,0.7-0.2,1.1l-1.1,2.6l0.2,0.2l2.2-3.1
		c1.6-2.1,3-3.1,4.3-3.1c0.5,0,1,0.1,1.3,0.4c0.3,0.3,0.5,0.6,0.5,1.1c0,0.4-0.1,0.7-0.4,1c-0.3,0.3-0.6,0.4-0.9,0.4
		c-0.3,0-0.6-0.1-0.8-0.3c-1.2-0.9-1.7-1.4-1.6-1.4c-0.5,0-1.2,0.6-2.2,1.9L60,22v12c0,0.8,0.2,1.3,0.5,1.5c0.3,0.2,1.3,0.5,2.8,0.7
		v0.2c-2.3-0.2-4-0.4-5.1-0.4s-2.8,0.1-5.1,0.4c-2.2,0.3-4.1,1-5.8,2.1C45.4,39.7,44.2,41.1,43.4,42.9c4.1,1.5,11,4.6,20.7,9.2
		c0.7-0.6,2.2-2,4.7-4.3c1.9-1.8,3.5-3.2,4.8-4.2c3.8-3,7.4-4.4,10.7-4.4c2.8,0,5.1,1,7,3c1.9,2,2.8,4.4,2.8,7.3
		c0,1.8-0.4,3.5-1.2,5c-0.8,1.5-1.9,2.8-3.4,3.8c-1.9,1.3-3.9,1.9-6.1,1.9c-3.8,0-10.6-2.2-20.3-6.7c-3.6,2.6-6.7,4-9.5,4
		c-2.9,0-5.4-1.1-7.5-3.3c-2.1-2.2-3.2-4.8-3.2-7.8c0-0.7,0.1-1.4,0.2-2.1c-7.4-3.2-12.9-4.9-16.3-4.9c-2,0-3.7,0.7-5.1,2
		c-1.4,1.3-2,3-2,5.1c0,1.9,0.6,3.5,1.9,4.8c1.2,1.3,2.8,1.9,4.7,1.9c1.7,0,3.2-0.6,4.3-1.7c1.2-1.1,1.7-2.6,1.7-4.3
		c0-1.6-0.5-2.9-1.6-4.1c-1-1.2-2.3-1.8-3.7-1.8c-0.8,0-1.4,0.2-1.9,0.5c-0.5,0.3-0.7,0.7-0.7,1c0,0.3,0.2,0.6,0.5,0.7
		c0.8,0.3,1.2,0.7,1.2,1.5c0,0.4-0.1,0.8-0.4,1.1c-0.3,0.3-0.6,0.4-1.1,0.4c-0.5,0-0.9-0.2-1.2-0.5c-0.3-0.4-0.4-0.8-0.4-1.3
		c0-0.9,0.4-1.6,1.1-2.3c0.8-0.7,1.8-1.1,2.9-1.1c1.4,0,2.7,0.6,3.7,1.8c1.1,1.2,1.6,2.6,1.6,4.2c0,1.7-0.6,3.2-1.7,4.4
		c-1.2,1.2-2.6,1.8-4.3,1.8c-1.9,0-3.5-0.6-4.7-1.9c-1.3-1.3-1.9-2.9-1.9-4.8c0-2.1,0.7-3.8,2.1-5.1c1.4-1.4,3.1-2.1,5.1-2.1
		C31.2,39.2,36.8,40.4,43.4,42.9z M62.6,53.3c-1.1-0.5-4.4-2.1-9.8-4.7c-4-1.9-7.3-3.4-9.7-4.5c-0.1,0.7-0.2,1.3-0.2,2.1
		c0,3,1,5.6,3.1,7.8c2.1,2.2,4.6,3.3,7.5,3.3C56.2,57.3,59.3,56,62.6,53.3z M89.4,58.1c3-2,4.5-4.9,4.5-8.6c0-2.9-0.9-5.3-2.8-7.3
		c-1.8-1.9-4.1-2.9-6.9-2.9c-2.7,0-6,1.5-9.8,4.5c-1.1,0.9-2.8,2.3-5,4.2c-2.3,2-3.9,3.4-5,4.3c10.2,4.8,16.9,7.2,20.3,7.2
		C86.5,59.5,88.1,59,89.4,58.1z"/>
	
		<linearGradient id="SVGID_00000003816250166398013130000016255911126075236258_" gradientUnits="userSpaceOnUse" x1="90.2055" y1="27.8092" x2="63.0731" y2="0.6768">
		<stop  offset="0" style="stop-color:#0C4F96"/>
		<stop  offset="1" style="stop-color:#1E90FF"/>
	</linearGradient>
	<path style="fill:url(#SVGID_00000003816250166398013130000016255911126075236258_);" d="M81,17.5c0.9,0.2,1.4,0.3,1.6,0.3
		c0.6,0,1-0.3,1.4-0.8c0.1-0.1,0.2-0.4,0.4-0.7c0.3-0.6,0.6-1.1,0.8-1.5c-0.6-0.5-1.2-1-1.7-1.5c-2.2,1.5-4.2,2.3-6.1,2.3
		c-1.4,0-2.5-0.4-3.4-1.3c-0.8-0.8-1.3-1.8-1.3-3c0-1.3,0.5-2.5,1.4-3.5c0.9-1,2.1-1.6,3.6-1.9c-1.4-1.8-2.8-3.2-4.2-4.1
		C71.9,0.7,70,0.1,68,0.1c-2.8,0-5.1,0.9-6.9,2.7c-1.8,1.7-2.7,3.9-2.7,6.4c0,1.9,0.6,3.5,1.9,4.8c1.2,1.3,2.8,1.9,4.7,1.9
		c1.7,0,3.2-0.6,4.3-1.7C70.4,13,71,11.6,71,9.8c0-1.6-0.5-2.9-1.6-4.1c-1-1.2-2.3-1.8-3.7-1.8c-0.8,0-1.4,0.2-1.9,0.5
		c-0.5,0.3-0.7,0.7-0.7,1c0,0.3,0.2,0.6,0.5,0.7c0.8,0.3,1.2,0.7,1.2,1.5c0,0.4-0.1,0.8-0.4,1.1c-0.3,0.3-0.6,0.4-1.1,0.4
		c-0.5,0-0.9-0.2-1.2-0.5c-0.3-0.4-0.4-0.8-0.4-1.3c0-0.9,0.4-1.6,1.1-2.3c0.8-0.7,1.8-1.1,2.9-1.1c1.4,0,2.7,0.6,3.7,1.8
		c1.1,1.2,1.6,2.6,1.6,4.2c0,1.7-0.6,3.2-1.7,4.4C68.1,15.4,66.7,16,65,16c-1.9,0-3.5-0.6-4.7-1.9c-1.3-1.3-1.9-2.9-1.9-4.8
		c0-2.6,0.9-4.8,2.7-6.5C62.9,0.9,65.2,0,68,0c3.5,0,6.8,2,9.9,5.9c0.4-0.1,0.9-0.1,1.4-0.1c1.5,0,2.8,0.4,4,1.1
		c1.2,0.8,1.9,1.7,2.4,2.9c2.4-1.7,4.4-2.6,6.2-2.6c1.4,0,2.6,0.5,3.6,1.4c1,1,1.5,2.1,1.5,3.5c0,1.3-0.5,2.5-1.4,3.5
		c-1,1-2.1,1.6-3.5,1.6c-2.5,0-4.8-0.8-6.9-2.4c-0.2,0.5-0.5,1-0.7,1.5c-0.4,0.8-0.7,1.8-0.7,3.1c0,0.9,0.1,2.6,0.4,5.2h-0.1
		C83.6,22,83,20.1,82.2,19c-0.8-1.2-1.9-1.7-3.3-1.7c-3.5,0-6.1,1.4-7.8,4.1l0.2,0.2l2.2-1.1c0.2-0.1,0.3-0.1,0.5,0
		c0.1,0.1,0.2,0.2,0.1,0.4c0,0.1,0,0.2-0.1,0.3c0,0.1-0.1,0.3-0.1,0.4c-0.4,1.4-0.6,3.2-0.6,5.5c0,3.4,0.4,5.8,1.3,7.4
		c0.9,1.6,2.3,2.4,4.2,2.4c1.4,0,2.7-0.6,3.8-1.7c1.1-1.1,1.9-2.6,2.2-4.5h0.1c-0.3,1.9-1.1,3.4-2.2,4.5c-1.2,1.2-2.5,1.7-3.9,1.7
		c-2.8,0-5.1-0.9-6.8-2.8c-1.7-1.8-2.6-4.2-2.6-7.1c0-2.9,0.9-5.3,2.6-7.1c1.7-1.9,4-2.8,6.8-2.8C79.4,17.2,80.1,17.3,81,17.5z
		 M82.6,12.2c-0.7-0.7-1.5-1.8-2.4-3.1c-1.2-1.7-2-2.7-2.3-3.1c-1.4,0.3-2.6,0.9-3.5,1.9c-0.9,1-1.4,2.1-1.4,3.4c0,1,0.3,1.7,1,2.4
		c0.7,0.7,1.6,1,2.7,1C78.4,14.6,80.4,13.8,82.6,12.2z M78,6c0.4,0.5,1.2,1.5,2.3,3.1c1,1.3,1.7,2.3,2.4,3.1
		c0.4-0.3,0.9-0.7,1.5-1.1l1.5-1.1c-0.4-1.2-1.2-2.1-2.4-2.9c-1.2-0.8-2.5-1.1-4-1.1C78.9,5.9,78.5,5.9,78,6z M86,11.4
		c-1.2,0.9-1.9,1.5-2.3,1.8c0.5,0.5,1.1,1.1,1.6,1.5c0.4-1.1,0.7-2.1,0.7-3V11.4z M95.6,15.6c0.9-1,1.4-2.2,1.4-3.5
		c0-1.2-0.4-2.3-1.2-3.1c-0.8-0.9-1.8-1.3-2.9-1.3c-1.6,0-3.8,1.2-6.8,3.6c0,0.1,0,0.2,0,0.4c0,0.9-0.2,2-0.7,3.1
		c2,1.6,4.3,2.4,6.8,2.4C93.5,17.2,94.6,16.6,95.6,15.6z"/>
	
		<linearGradient id="SVGID_00000140712357306017824910000013829612813234367900_" gradientUnits="userSpaceOnUse" x1="104.1826" y1="33.7942" x2="90.6598" y2="20.2715">
		<stop  offset="0" style="stop-color:#0C4F96"/>
		<stop  offset="1" style="stop-color:#1E90FF"/>
	</linearGradient>
	<path style="fill:url(#SVGID_00000140712357306017824910000013829612813234367900_);" d="M103.8,19.9c1.8,1.9,2.8,4.3,2.8,7.1
		c0,2.9-0.9,5.2-2.8,7.1c-1.8,1.8-3.9,2.7-6.4,2.7c-2.5,0-4.6-0.9-6.4-2.7c-1.8-1.9-2.8-4.3-2.8-7.1c0-2.9,0.9-5.2,2.8-7.1
		c1.8-1.8,3.9-2.7,6.4-2.7C99.9,17.2,102,18.1,103.8,19.9z M101.3,19.2c-0.8-1.3-2.1-2-3.9-2c-3.1,0-5.6,1.4-7.4,4.1l0.2,0.2l2-1.1
		c0.2-0.1,0.3-0.1,0.5-0.1c0.1,0.1,0.2,0.2,0.1,0.4c0,0.1,0,0.2-0.1,0.3c0,0.1-0.1,0.3-0.1,0.4c-0.3,1.4-0.4,3.2-0.4,5.5
		c0,3.7,0.4,6.3,1.3,7.8c0.8,1.3,2.1,2,3.9,2c3.1,0,5.6-1.4,7.4-4.1l-0.2-0.2l-2,1.1c-0.2,0.1-0.3,0.1-0.5,0
		c-0.1-0.1-0.2-0.2-0.1-0.4c0-0.1,0-0.2,0.1-0.3c0-0.1,0.1-0.3,0.1-0.4c0.3-1.4,0.4-3.2,0.4-5.5C102.6,23.3,102.2,20.7,101.3,19.2z"
		/>
	
		<linearGradient id="SVGID_00000057861523789797553730000015267059441993270189_" gradientUnits="userSpaceOnUse" x1="123.5969" y1="33.5364" x2="110.871" y2="20.8105">
		<stop  offset="0" style="stop-color:#0C4F96"/>
		<stop  offset="1" style="stop-color:#1E90FF"/>
	</linearGradient>
	<path style="fill:url(#SVGID_00000057861523789797553730000015267059441993270189_);" d="M121.4,35.5c1.1-0.9,1.9-2,2.3-3.3
		c0.2-0.7,0.3-1.2,0.3-1.7v-0.1l-0.3,0l-0.6,1.3c-0.1,0.3-0.3,0.3-0.5,0.2l-9.8-5.1c-1.2-0.6-1.8-1.8-1.8-3.5c0-1.1,0.4-2.3,1.1-3.5
		c1.1-1.8,2.9-2.7,5.4-2.7c0.8,0,1.6,0.1,2.5,0.3c0.9,0.2,1.4,0.4,1.6,0.4c0.5,0,0.9-0.3,1.2-0.8l0.3,0.2c-0.2,0.6-0.3,1.4-0.3,2.4
		c0,0.7,0.1,2.4,0.4,5.2H123c-0.5-2.8-1.2-4.7-2-5.8c-0.8-1.2-2-1.7-3.6-1.7c-2.4,0-4.2,0.9-5.3,2.7c-0.7,1.1-1.1,2.2-1.1,3.4v0.2
		l0.3,0l0.6-1.3c0.1-0.3,0.3-0.3,0.5-0.2l9.4,4.8c1.5,0.8,2.3,2,2.3,3.8c0,1.6-0.6,3-1.8,4.3c-1.3,1.4-2.8,2.1-4.5,2.1
		c-0.7,0-1.4-0.1-2-0.4c-0.2-0.1-0.8-0.4-1.6-0.8c-0.6-0.3-1.2-0.5-1.5-0.5c-0.6,0-1.2,0.5-1.5,1.4l-0.4-0.2c0.2-0.7,0.3-1.7,0.3-3
		c0-1.2-0.1-2.8-0.3-4.8h0.1c0.8,4.3,2.4,6.9,4.9,7.9c0.6,0.2,1.3,0.4,2,0.4C119.1,36.8,120.3,36.4,121.4,35.5z"/>
</g>
</svg>
